<svg width="24" height="24" viewBox="0 0 24 24" fill="none" xmlns="http://www.w3.org/2000/svg">
<path d="M11.9531 1.00024C5.27845 1.00024 0 5.6725 0 11.3128C0 13.7154 0.97224 16.0432 2.74197 17.8875C3.09222 19.2992 2.66697 20.7951 1.61223 21.8264C1.17124 22.2576 1.48323 23 2.10948 23C4.11296 23 6.04444 22.2322 7.48017 20.8792C8.90016 21.3742 10.4024 21.625 11.9531 21.625C18.6463 21.625 24 16.9391 24 11.3125C24 5.68301 18.6428 1.00024 11.9531 1.00024ZM11.9531 2.36618C17.8203 2.36618 22.603 6.38456 22.603 11.3128C22.603 16.2409 17.8203 20.2593 11.9531 20.2593C10.4194 20.2593 8.94066 19.9772 7.55817 19.439C7.28667 19.3334 6.97668 19.4028 6.77918 19.6135C5.92994 20.5209 4.82595 21.1537 3.62321 21.4446C4.28571 20.2031 4.4552 18.7394 4.05196 17.3529C4.02021 17.2436 3.96121 17.1437 3.88021 17.062C2.28498 15.4556 1.39724 13.4137 1.39724 11.3128C1.39724 6.38456 6.13769 2.36618 11.9531 2.36618ZM7.88517 9.81628C7.04143 9.81628 6.35493 10.4875 6.35493 11.3125C6.35493 12.1375 7.04143 12.8087 7.88517 12.8087C8.72891 12.8087 9.4154 12.1375 9.4154 11.3125C9.4154 10.4875 8.72891 9.81628 7.88517 9.81628ZM11.9659 9.81628C11.1221 9.81628 10.4356 10.4875 10.4356 11.3125C10.4356 12.1375 11.1221 12.8087 11.9659 12.8087C12.8096 12.8087 13.4961 12.1375 13.4961 11.3125C13.4961 10.4875 12.8096 9.81628 11.9659 9.81628ZM16.1146 9.81628C15.2708 9.81628 14.5843 10.4875 14.5843 11.3125C14.5843 12.1375 15.2708 12.8087 16.1146 12.8087C16.9583 12.8087 17.6448 12.1375 17.6448 11.3125C17.6448 10.4875 16.9583 9.81628 16.1146 9.81628Z" fill="#FF730D"/>
</svg>
